<?xml version="1.0" encoding="utf-8"?>
<!-- Generator: Adobe Illustrator 28.0.0, SVG Export Plug-In . SVG Version: 6.00 Build 0)  -->
<svg version="1.1" id="Capa_1" xmlns="http://www.w3.org/2000/svg" xmlns:xlink="http://www.w3.org/1999/xlink" x="0px" y="0px"
	 viewBox="0 0 1920 1080" style="enable-background:new 0 0 1920 1080;" xml:space="preserve">
<style type="text/css">
	.st0{fill:none;}
	.st1{fill:#2E3D8B;}
	.st2{fill-rule:evenodd;clip-rule:evenodd;fill:#2EA2BC;}
</style>
<path class="st0" d="M1409.74,147.47"/>
<path class="st0" d="M1248.41,954.21"/>
<g>
	<path class="st1" d="M649.66,326.37c36.4,0,52.84,15.52,52.84,59.28l0.09,162.18c0.04,55.9-55.88,83.39-112.75,83.39
		c-58.75,0-109.11-27.49-109.11-83.39V326.37c24.48,0,52.36,7.99,52.36,52.56l0.41,156.11c0.05,30.42,22.94,45.75,57.93,45.75
		c33.28,0,58.37-15.34,58.37-45.75L649.66,326.37z M773.33,627.35h52.6V439.59c0-39.86,21.37-63.82,61.93-63.82h15.61
		c45.95,0,53.39-23.72,53.39-49.4h-73.6c-65.12,0-109.93,37.59-109.93,115V627.35z M291.94,443.39
		c-17.7-4.71-33.87-12.58-33.87-34.12c0-22.52,13.63-33.51,42.24-33.51h57.12c25.32,0,55.39-8.23,55.39-49.4l-107.55,0.07
		c-66.21,0.12-104.15,33.48-104.15,81.43c0,44.72,28.3,69.71,78.87,83.09l56.03,14.94c23.06,6.16,31.34,20.65,31.34,35.58
		c0,22.52-14.23,36.1-49.07,36.33l-107.27,0.96v48.59h109.04c66.33,0,104.19-35.6,104.19-82.45c0-47.08-18.5-70.26-68.14-83.79
		L291.94,443.39z M1224.54,369.1h-0.09v258.25c-33.11,0-49.77-9.42-53.54-40.23c0,0-23.11,46.01-89.2,46.01
		c-80.27,0-127.81-63.78-125.24-155.06c2.84-100.17,68.54-151.64,138.39-151.7h13.21v-0.01h116.48V369.1z M1167.83,374.68h-60.53
		v-0.04c-3.31,0.23-6.72,0.43-10.24,0.43c-45.89,0-80.55,31.59-82.63,103.71c-2.16,75.07,31.11,106.12,77.68,106.12
		c51.76,0,75.72-39.63,75.72-81.23V374.68z"/>
	<path class="st2" d="M1509.26,652.29c0.51,0.05,0.97,0.55,0.8,1.61c-5.66,7.51-15.02,15.93-27.28,24.69
		c-12.02,8.53-26.17,16.77-40.95,23.85c-15.6,7.4-29.23,13.72-43.65,17.43c-16.11,4.14-30.18,5.66-41.85,4.26
		c-9.46-0.97-17.16-3.81-23.04-8.57c-0.35-0.25-0.45-0.8-0.45-1.21c0.11-0.71,0.75-1.21,1.5-1.33
		c36.16-5.83,69.37-14.79,100.33-25.37C1465.02,677.15,1490.47,665,1509.26,652.29"/>
	<path class="st2" d="M1506.41,634.78c-19.68,11.66-59.86,28.77-94.86,38.62c-41.77,11.86-75.23,17.63-97.66,14.39
		c-19.7-2.94-29.47-12.21-32.47-15.62c-0.45-0.39-0.96-0.81-0.77-1.41c0.12-0.71,0.65-1.25,1.57-1.37l7.55-0.49
		c16.68-1.17,46.55-1.89,81.42-7.03c40.32-5.84,104.99-17.29,134.6-28.9C1506.41,633.13,1506.83,633.6,1506.41,634.78"/>
	<path class="st2" d="M1502.87,686.28c0.56,0.08,1.12,0.48,0.89,1.5c-7.35,17.41-15.6,30.51-31.79,38.7
		c-28.39,14.18-43.32,6.03-45.25,5.13c-0.49-0.35-0.93-0.97-0.93-1.58c0.07-0.67,0.55-1.21,1.2-1.24
		c12.41-3.81,49.6-17.63,74.89-42.28C1502.2,686.36,1502.57,686.19,1502.87,686.28"/>
	<path class="st2" d="M1690.9,418.27c0.52,0.24,0.69,0.68,0.69,1.05c-0.04,0.56-0.56,0.92-1.44,0.85
		c-8.44-2.48-26.44-7.47-49.24-13.66c-52.12-14.38-248.96-67.04-252.17-67.88l-0.97-0.35c-11.77-3.67-21.41-9.6-28.89-17.62
		c-2.21-2.25-4.19-4.85-6.04-7.68c-6.51-10.01-8.16-24.71-8.53-27.46c0-0.27,0.13-0.88,0.53-1.25c0.39-0.39,0.87-0.47,1.94-0.29
		l32.2,12.59C1455.34,326.24,1657.98,404.86,1690.9,418.27"/>
	<path class="st2" d="M1657.91,387.15c0.31,1.29-0.33,1.64-1.3,1.38c-11.59-5.79-37.74-18.33-64.03-31.39
		c-22.2-11.13-174.05-82.59-184.34-87.83l-18.16-9.32c-2.73-1.4-5.11-2.93-7.59-4.39c-7.11-4.38-10.76-7.52-14.78-12.41
		c-3.13-4.17-5.66-9.3-7.64-14.08c-4.3-10.97-4.11-25.27-3.89-27.84c0-0.35,0.19-0.91,0.76-1.12c0.4-0.28,0.91-0.29,1.93,0.04
		l18.92,11.58l10.12,6.26l55.66,33.92C1521.1,300.4,1629.66,369.35,1657.91,387.15"/>
	<path class="st2" d="M1713.81,439.41c0.44,0.01,0.85,0.52,0.85,1.01c0,0.55-0.47,0.87-1.26,0.87
		c-29.93-2.24-299.52-21.03-299.52-21.03c-2.45-0.21-4.42-0.49-6.94-1.18c-21.38-6.84-33.79-23.34-38.87-39.76
		c-0.07-0.68-0.16-1.29,0-1.88c0.55-0.49,1.17-0.77,1.74-0.75C1369.81,376.69,1687.53,434.49,1713.81,439.41"/>
	<path class="st2" d="M1700.5,457.49c0.49,0.04,1.05,0.67,1.01,1.13c-0.13,0.47-0.52,0.75-0.97,0.93
		c-11.17,1.73-216.11,29.61-217.56,29.82c-1.2,0.2-2.37,0.37-3.59,0.37c-1.12,0-2.26,0-3.43-0.17c-9.76-1.02-19.26-5.76-27.81-14.87
		c-4.29-4.61-8.23-11.97-9.21-14.92c-0.31-0.41-0.31-0.83,0-1.32c0.35-0.49,0.88-0.76,1.36-0.77c0,0,68.73-0.16,112.14-0.12
		c32.29,0.12,66.84,0.12,94.79,0.12C1671.57,457.69,1690.9,457.69,1700.5,457.49"/>
	<path class="st2" d="M1685.03,478.51c0.39,0,1.21-0.13,1.36,0.33c0.04,0.32,0.69,0.84-0.37,1.52
		c-6.62,4.46-154.1,65.11-155.52,65.67c-8.08,2.77-17.12,4.18-23.66-7.02c-2.76-4.59-5.13-8.33-6.15-10.1
		c-0.56-0.68-2.16-2.45,2.18-3.53c0,0,41.57-11.16,78.46-20.51C1623.99,494.29,1672.3,482.07,1685.03,478.51"/>
	<path class="st2" d="M1619.96,580.25c0.6,0.11,1.04,0.63,0.71,1.77c-14.23,16.45-66.87,74.17-90.6,99.53
		c-2.46,2.57-3.75,1.38-2.77-1.13c0,0,4.47-11.32,6.36-20.1c1.28-5.25,2.46-9.64,5.32-11.94c30.88-25.96,60.58-51.73,80.1-67.76
		L1619.96,580.25z"/>
	<path class="st2" d="M1668.47,507.06c0.65,0.25,1.02,0.65,0.65,1.84c-14.38,12.02-80.34,67.04-115.83,96.06l-1.25,0.97
		c-10.38,7.77-17.24,9.65-18.4-7.43c-0.4-4.01-0.8-7.36-0.8-7.36c-0.72-3.59,0.4-3.59,1.74-4.43c11.57-7.06,33.76-19.41,51.4-29.99
		C1617.44,537.98,1654.3,515.61,1668.47,507.06"/>
</g>
</svg>
